<svg width="70" height="70" viewBox="0 0 70 70" fill="none" xmlns="http://www.w3.org/2000/svg">
<g clip-path="url(#clip0_426_680)">
<path d="M5.2921 57.9775L8.37914 63.3097C9.0206 64.4323 9.94272 65.3143 11.0252 65.9558L22.0504 46.8721H0C0 48.115 0.320718 49.3578 0.962184 50.4804L5.2921 57.9775Z" fill="#0066DA"/>
<path d="M35 24.4208L23.9748 5.33716C22.8923 5.97862 21.9702 6.86064 21.3288 7.98321L0.962184 43.2638C0.332516 44.3622 0.000838366 45.606 0 46.8721H22.0504L35 24.4208Z" fill="#00AC47"/>
<path d="M58.9748 65.9558C60.0573 65.3143 60.9794 64.4323 61.6208 63.3097L62.9038 61.1047L69.0378 50.4804C69.6793 49.3578 70 48.115 70 46.8721H47.948L52.6403 56.0932L58.9748 65.9558Z" fill="#EA4335"/>
<path d="M35.0001 24.4208L46.0252 5.3372C44.9428 4.69573 43.6999 4.375 42.417 4.375H27.5831C26.3002 4.375 25.0573 4.73583 23.9749 5.3372L35.0001 24.4208Z" fill="#00832D"/>
<path d="M47.9495 46.8721H22.0503L11.0251 65.9557C12.1076 66.5972 13.3505 66.9179 14.6334 66.9179H55.3665C56.6494 66.9179 57.8922 66.5571 58.9747 65.9557L47.9495 46.8721Z" fill="#2684FC"/>
<path d="M58.8545 25.6235L48.6712 7.98321C48.0298 6.86064 47.1077 5.97862 46.0252 5.33716L35 24.4208L47.9496 46.8721H69.9599C69.9599 45.6292 69.6392 44.3864 68.9977 43.2638L58.8545 25.6235Z" fill="#FFBA00"/>
</g>
<defs>
<clipPath id="clip0_426_680">
<rect width="70" height="70" fill="white"/>
</clipPath>
</defs>
</svg>
